<svg xmlns="http://www.w3.org/2000/svg" fill-rule="evenodd" clip-rule="evenodd" image-rendering="optimizeQuality" shape-rendering="geometricPrecision" text-rendering="geometricPrecision" viewBox="0 0 512 356.18"><g fill-rule="nonzero"><path fill="#e30a17" d="M28.137 0H483.86C499.337 0 512 12.663 512 28.14v299.9c0 15.477-12.663 28.14-28.14 28.14H28.137C12.663 356.18 0 343.517 0 328.04V28.14C0 12.663 12.663 0 28.137 0"/><path fill="#fff" d="M253.365 130.516c-15.783-24.923-43.598-41.473-75.281-41.473-49.179 0-89.047 39.868-89.047 89.047s39.868 89.047 89.047 89.047c31.684 0 59.498-16.55 75.282-41.475-13.042 14.526-31.963 23.665-53.021 23.665-39.342 0-71.237-31.893-71.237-71.237s31.895-71.237 71.237-71.237c21.058 0 39.978 9.138 53.02 23.663m-4.785 47.574 80.543 26.169-49.778-68.514v84.688l49.778-68.514z"/></g></svg>